<svg xmlns="http://www.w3.org/2000/svg" width="980" height="520" viewBox="0 0 980 520">
<style>
text { font-family: Arial, Helvetica, sans-serif; fill: #111827; }
.title { font-size: 20px; font-weight: 700; }
.subtitle { font-size: 12px; fill: #4b5563; }
.axis { font-size: 11px; fill: #4b5563; }
.label { font-size: 12px; }
.small { font-size: 10px; fill: #4b5563; }
.node { font-size: 11px; font-weight: 700; }
</style>
<rect x="0" y="0" width="100%" height="100%" fill="#ffffff"/>
<text x="24" y="30" class="title">Semiconductor topology abstraction</text>
<text x="24" y="50" class="subtitle">Interventions only reroute flow where the graph still has a real choice point.</text>
<defs><marker id="arrow2" markerWidth="10" markerHeight="10" refX="9" refY="3" orient="auto"><path d="M0,0 L0,6 L9,3 z" fill="#374151"/></marker></defs>
<line x1="125" y1="248" x2="220" y2="138" stroke="#6b7280" stroke-width="1.4" marker-end="url(#arrow2)"/>
<line x1="125" y1="248" x2="220" y2="358" stroke="#6b7280" stroke-width="1.4" marker-end="url(#arrow2)"/>
<line x1="270" y1="138" x2="395" y2="123" stroke="#6b7280" stroke-width="1.4" marker-end="url(#arrow2)"/>
<line x1="270" y1="138" x2="395" y2="303" stroke="#6b7280" stroke-width="1.4" marker-end="url(#arrow2)"/>
<line x1="270" y1="358" x2="395" y2="303" stroke="#6b7280" stroke-width="1.4" marker-end="url(#arrow2)"/>
<line x1="445" y1="123" x2="560" y2="123" stroke="#6b7280" stroke-width="1.4" marker-end="url(#arrow2)"/>
<line x1="445" y1="458" x2="560" y2="123" stroke="#6b7280" stroke-width="1.4" marker-end="url(#arrow2)"/>
<line x1="610" y1="123" x2="730" y2="138" stroke="#6b7280" stroke-width="1.4" marker-end="url(#arrow2)"/>
<line x1="445" y1="303" x2="560" y2="303" stroke="#6b7280" stroke-width="1.4" marker-end="url(#arrow2)"/>
<line x1="445" y1="458" x2="560" y2="303" stroke="#6b7280" stroke-width="1.4" marker-end="url(#arrow2)"/>
<line x1="610" y1="303" x2="725" y2="303" stroke="#6b7280" stroke-width="1.4" marker-end="url(#arrow2)"/>
<line x1="775" y1="303" x2="840" y2="388" stroke="#6b7280" stroke-width="1.4" marker-end="url(#arrow2)"/>
<line x1="890" y1="388" x2="220" y2="138" stroke="#6b7280" stroke-width="1.4" marker-end="url(#arrow2)"/>
<line x1="780" y1="138" x2="220" y2="138" stroke="#6b7280" stroke-width="1.4" marker-end="url(#arrow2)"/>
<line x1="780" y1="458" x2="220" y2="138" stroke="#6b7280" stroke-width="1.4" marker-end="url(#arrow2)"/>
<rect x="70" y="220" width="110" height="56" rx="8" fill="#e0f2fe" stroke="#374151"/>
<text x="125" y="244" text-anchor="middle" class="node">Allocation</text>
<rect x="215" y="110" width="110" height="56" rx="8" fill="#dbeafe" stroke="#374151"/>
<text x="270" y="134" text-anchor="middle" class="node">US</text>
<text x="270" y="149" text-anchor="middle" class="node">demand</text>
<rect x="215" y="330" width="110" height="56" rx="8" fill="#fee2e2" stroke="#374151"/>
<text x="270" y="354" text-anchor="middle" class="node">China</text>
<text x="270" y="369" text-anchor="middle" class="node">demand</text>
<rect x="390" y="95" width="110" height="56" rx="8" fill="#dcfce7" stroke="#374151"/>
<text x="445" y="119" text-anchor="middle" class="node">US</text>
<text x="445" y="134" text-anchor="middle" class="node">fabs</text>
<rect x="555" y="95" width="110" height="56" rx="8" fill="#fef3c7" stroke="#374151"/>
<text x="610" y="119" text-anchor="middle" class="node">US</text>
<text x="610" y="134" text-anchor="middle" class="node">gates</text>
<rect x="725" y="110" width="110" height="56" rx="8" fill="#dcfce7" stroke="#374151"/>
<text x="780" y="134" text-anchor="middle" class="node">US</text>
<text x="780" y="149" text-anchor="middle" class="node">finished</text>
<rect x="390" y="275" width="110" height="56" rx="8" fill="#ede9fe" stroke="#374151"/>
<text x="445" y="299" text-anchor="middle" class="node">Taiwan</text>
<text x="445" y="314" text-anchor="middle" class="node">fabs</text>
<rect x="555" y="275" width="110" height="56" rx="8" fill="#ede9fe" stroke="#374151"/>
<text x="610" y="299" text-anchor="middle" class="node">Taiwan</text>
<text x="610" y="314" text-anchor="middle" class="node">OSAT</text>
<rect x="720" y="275" width="110" height="56" rx="8" fill="#fee2e2" stroke="#374151"/>
<text x="775" y="299" text-anchor="middle" class="node">Export</text>
<text x="775" y="314" text-anchor="middle" class="node">review</text>
<rect x="835" y="360" width="110" height="56" rx="8" fill="#f3f4f6" stroke="#374151"/>
<text x="890" y="384" text-anchor="middle" class="node">Shipping/port</text>
<rect x="390" y="430" width="110" height="56" rx="8" fill="#fef3c7" stroke="#374151"/>
<text x="445" y="454" text-anchor="middle" class="node">Inputs</text>
<rect x="725" y="430" width="110" height="56" rx="8" fill="#fef3c7" stroke="#374151"/>
<text x="780" y="454" text-anchor="middle" class="node">Reserve</text>
<text x="356" y="75" class="small">Upstream route choices: interventions can change allocation here.</text>
<text x="612" y="258" class="small">Serial offshore corridor: downstream friction is inert unless exits exist.</text>
</svg>