<svg xmlns="http://www.w3.org/2000/svg" width="810" height="430" viewBox="0 0 810 430">
<style>
text { font-family: Arial, Helvetica, sans-serif; fill: #111827; }
.title { font-size: 20px; font-weight: 700; }
.subtitle { font-size: 12px; fill: #4b5563; }
.axis { font-size: 11px; fill: #4b5563; }
.label { font-size: 12px; }
.small { font-size: 10px; fill: #4b5563; }
.node { font-size: 11px; font-weight: 700; }
</style>
<rect x="0" y="0" width="100%" height="100%" fill="#ffffff"/>
<text x="24" y="30" class="title">Topology nulls: share is not feasibility</text>
<text x="24" y="50" class="subtitle">Some randomized topologies show high onshore share without robust completion.</text>
<rect x="80" y="76" width="555" height="296" fill="#f9fafb" stroke="#d1d5db"/>
<line x1="126.2" y1="76" x2="126.2" y2="372" stroke="#e5e7eb"/>
<text x="126.2" y="392" text-anchor="middle" class="axis">0.70</text>
<line x1="357.5" y1="76" x2="357.5" y2="372" stroke="#e5e7eb"/>
<text x="357.5" y="392" text-anchor="middle" class="axis">0.80</text>
<line x1="588.8" y1="76" x2="588.8" y2="372" stroke="#e5e7eb"/>
<text x="588.8" y="392" text-anchor="middle" class="axis">0.90</text>
<line x1="80" y1="354.6" x2="635" y2="354.6" stroke="#e5e7eb"/>
<text x="71" y="358.6" text-anchor="end" class="axis">0.70</text>
<line x1="80" y1="267.5" x2="635" y2="267.5" stroke="#e5e7eb"/>
<text x="71" y="271.5" text-anchor="end" class="axis">0.80</text>
<line x1="80" y1="180.5" x2="635" y2="180.5" stroke="#e5e7eb"/>
<text x="71" y="184.5" text-anchor="end" class="axis">0.90</text>
<line x1="80" y1="93.4" x2="635" y2="93.4" stroke="#e5e7eb"/>
<text x="71" y="97.4" text-anchor="end" class="axis">1.00</text>
<circle cx="577.4" cy="114.1" r="4.5" fill="#047857" stroke="#ffffff" stroke-width="1.4" opacity="0.86"/>
<circle cx="582.7" cy="115.7" r="6" fill="#047857" stroke="#111827" stroke-width="1.4" opacity="0.86"/>
<circle cx="464.8" cy="339.9" r="4.5" fill="#b91c1c" stroke="#ffffff" stroke-width="1.4" opacity="0.86"/>
<circle cx="472.2" cy="326.3" r="6" fill="#b91c1c" stroke="#111827" stroke-width="1.4" opacity="0.86"/>
<circle cx="215.6" cy="106.5" r="4.5" fill="#047857" stroke="#ffffff" stroke-width="1.4" opacity="0.86"/>
<circle cx="232.4" cy="107.6" r="6" fill="#047857" stroke="#111827" stroke-width="1.4" opacity="0.86"/>
<circle cx="391.6" cy="343.7" r="4.5" fill="#b91c1c" stroke="#ffffff" stroke-width="1.4" opacity="0.86"/>
<circle cx="396.5" cy="336.1" r="6" fill="#b91c1c" stroke="#111827" stroke-width="1.4" opacity="0.86"/>
<circle cx="370.8" cy="101.6" r="4.5" fill="#047857" stroke="#ffffff" stroke-width="1.4" opacity="0.86"/>
<circle cx="302.6" cy="93.4" r="6" fill="#047857" stroke="#111827" stroke-width="1.4" opacity="0.86"/>
<circle cx="490.8" cy="345.9" r="4.5" fill="#b91c1c" stroke="#ffffff" stroke-width="1.4" opacity="0.86"/>
<circle cx="503.0" cy="330.6" r="6" fill="#b91c1c" stroke="#111827" stroke-width="1.4" opacity="0.86"/>
<circle cx="435.4" cy="263.7" r="4.5" fill="#b91c1c" stroke="#ffffff" stroke-width="1.4" opacity="0.86"/>
<circle cx="460.7" cy="254.5" r="6" fill="#b91c1c" stroke="#111827" stroke-width="1.4" opacity="0.86"/>
<circle cx="489.0" cy="120.1" r="4.5" fill="#047857" stroke="#ffffff" stroke-width="1.4" opacity="0.86"/>
<circle cx="494.5" cy="114.1" r="6" fill="#047857" stroke="#111827" stroke-width="1.4" opacity="0.86"/>
<text x="357.5" y="412" text-anchor="middle" class="subtitle">Mean onshore share</text>
<text x="18" y="224.0" transform="rotate(-90 18 224.0)" text-anchor="middle" class="subtitle">Mean completion</text>
<circle cx="669" cy="96" r="5" fill="#047857"/>
<text x="683" y="100" class="label">Robust</text>
<circle cx="669" cy="120" r="5" fill="#b91c1c"/>
<text x="683" y="124" class="label">Not robust</text>
<circle cx="669" cy="144" r="6" fill="#9ca3af" stroke="#111827" stroke-width="1.4"/>
<text x="683" y="148" class="label">Pull enabled</text>
</svg>