<svg xmlns="http://www.w3.org/2000/svg" width="880" height="430" viewBox="0 0 880 430">
<style>
text { font-family: Arial, Helvetica, sans-serif; fill: #111827; }
.title { font-size: 20px; font-weight: 700; }
.subtitle { font-size: 12px; fill: #4b5563; }
.axis { font-size: 11px; fill: #4b5563; }
.label { font-size: 12px; }
.small { font-size: 10px; fill: #4b5563; }
.node { font-size: 11px; font-weight: 700; }
</style>
<rect x="0" y="0" width="100%" height="100%" fill="#ffffff"/>
<text x="24" y="30" class="title">Choice-point relocation</text>
<text x="24" y="50" class="subtitle">Equal budgets only move share when applied before route commitment.</text>
<line x1="76" y1="374" x2="690" y2="374" stroke="#9ca3af"/>
<line x1="76" y1="76" x2="76" y2="374" stroke="#9ca3af"/>
<line x1="76.0" y1="374" x2="76.0" y2="379" stroke="#9ca3af"/>
<text x="76.0" y="394" text-anchor="middle" class="axis">0</text>
<line x1="280.7" y1="374" x2="280.7" y2="379" stroke="#9ca3af"/>
<text x="280.7" y="394" text-anchor="middle" class="axis">4</text>
<line x1="485.3" y1="374" x2="485.3" y2="379" stroke="#9ca3af"/>
<text x="485.3" y="394" text-anchor="middle" class="axis">8</text>
<line x1="690.0" y1="374" x2="690.0" y2="379" stroke="#9ca3af"/>
<text x="690.0" y="394" text-anchor="middle" class="axis">12</text>
<line x1="71" y1="374.0" x2="76" y2="374.0" stroke="#9ca3af"/>
<text x="66" y="378.0" text-anchor="end" class="axis">0.00</text>
<line x1="76" y1="374.0" x2="690" y2="374.0" stroke="#f3f4f6"/>
<line x1="71" y1="299.5" x2="76" y2="299.5" stroke="#9ca3af"/>
<text x="66" y="303.5" text-anchor="end" class="axis">0.20</text>
<line x1="76" y1="299.5" x2="690" y2="299.5" stroke="#f3f4f6"/>
<line x1="71" y1="225.0" x2="76" y2="225.0" stroke="#9ca3af"/>
<text x="66" y="229.0" text-anchor="end" class="axis">0.39</text>
<line x1="76" y1="225.0" x2="690" y2="225.0" stroke="#f3f4f6"/>
<line x1="71" y1="150.5" x2="76" y2="150.5" stroke="#9ca3af"/>
<text x="66" y="154.5" text-anchor="end" class="axis">0.58</text>
<line x1="76" y1="150.5" x2="690" y2="150.5" stroke="#f3f4f6"/>
<line x1="71" y1="76.0" x2="76" y2="76.0" stroke="#9ca3af"/>
<text x="66" y="80.0" text-anchor="end" class="axis">0.78</text>
<line x1="76" y1="76.0" x2="690" y2="76.0" stroke="#f3f4f6"/>
<polyline points="76.0,182.3 280.7,182.3 485.3,182.3 690.0,182.3" fill="none" stroke="#7c3aed" stroke-width="2.4"/>
<circle cx="76.0" cy="182.3" r="4" fill="#7c3aed"/>
<circle cx="280.7" cy="182.3" r="4" fill="#7c3aed"/>
<circle cx="485.3" cy="182.3" r="4" fill="#7c3aed"/>
<circle cx="690.0" cy="182.3" r="4" fill="#7c3aed"/>
<rect x="718" y="77" width="12" height="12" fill="#7c3aed"/>
<text x="738" y="88" class="label">downstream serial</text>
<polyline points="76.0,182.3 280.7,182.3 485.3,182.3 690.0,182.3" fill="none" stroke="#b91c1c" stroke-width="2.4"/>
<circle cx="76.0" cy="182.3" r="4" fill="#b91c1c"/>
<circle cx="280.7" cy="182.3" r="4" fill="#b91c1c"/>
<circle cx="485.3" cy="182.3" r="4" fill="#b91c1c"/>
<circle cx="690.0" cy="182.3" r="4" fill="#b91c1c"/>
<rect x="718" y="99" width="12" height="12" fill="#b91c1c"/>
<text x="738" y="110" class="label">route commitment</text>
<polyline points="76.0,182.3 280.7,176.5 485.3,160.5 690.0,150.2" fill="none" stroke="#047857" stroke-width="2.4"/>
<circle cx="76.0" cy="182.3" r="4" fill="#047857"/>
<circle cx="280.7" cy="176.5" r="4" fill="#047857"/>
<circle cx="485.3" cy="160.5" r="4" fill="#047857"/>
<circle cx="690.0" cy="150.2" r="4" fill="#047857"/>
<rect x="718" y="121" width="12" height="12" fill="#047857"/>
<text x="738" y="132" class="label">upstream choice</text>
<text x="383.0" y="412" text-anchor="middle" class="subtitle">Intervention budget / feedback rate</text>
<text x="18" y="225.0" transform="rotate(-90 18 225.0)" text-anchor="middle" class="subtitle">Mean onshore share</text>
</svg>