<svg xmlns="http://www.w3.org/2000/svg" width="880" height="430" viewBox="0 0 880 430">
<style>
text { font-family: Arial, Helvetica, sans-serif; fill: #111827; }
.title { font-size: 20px; font-weight: 700; }
.subtitle { font-size: 12px; fill: #4b5563; }
.axis { font-size: 11px; fill: #4b5563; }
.label { font-size: 12px; }
.small { font-size: 10px; fill: #4b5563; }
.node { font-size: 11px; font-weight: 700; }
</style>
<rect x="0" y="0" width="100%" height="100%" fill="#ffffff"/>
<text x="24" y="30" class="title">Feedback shapes rather than monotonically improves robustness</text>
<text x="24" y="50" class="subtitle">Viable-transition rate across feedback rates.</text>
<line x1="76" y1="374" x2="690" y2="374" stroke="#9ca3af"/>
<line x1="76" y1="76" x2="76" y2="374" stroke="#9ca3af"/>
<line x1="76.0" y1="374" x2="76.0" y2="379" stroke="#9ca3af"/>
<text x="76.0" y="394" text-anchor="middle" class="axis">0</text>
<line x1="137.4" y1="374" x2="137.4" y2="379" stroke="#9ca3af"/>
<text x="137.4" y="394" text-anchor="middle" class="axis">0.05</text>
<line x1="198.8" y1="374" x2="198.8" y2="379" stroke="#9ca3af"/>
<text x="198.8" y="394" text-anchor="middle" class="axis">0.1</text>
<line x1="260.2" y1="374" x2="260.2" y2="379" stroke="#9ca3af"/>
<text x="260.2" y="394" text-anchor="middle" class="axis">0.15</text>
<line x1="444.4" y1="374" x2="444.4" y2="379" stroke="#9ca3af"/>
<text x="444.4" y="394" text-anchor="middle" class="axis">0.3</text>
<line x1="690.0" y1="374" x2="690.0" y2="379" stroke="#9ca3af"/>
<text x="690.0" y="394" text-anchor="middle" class="axis">0.5</text>
<line x1="71" y1="374.0" x2="76" y2="374.0" stroke="#9ca3af"/>
<text x="66" y="378.0" text-anchor="end" class="axis">0.00</text>
<line x1="76" y1="374.0" x2="690" y2="374.0" stroke="#f3f4f6"/>
<line x1="71" y1="299.5" x2="76" y2="299.5" stroke="#9ca3af"/>
<text x="66" y="303.5" text-anchor="end" class="axis">0.26</text>
<line x1="76" y1="299.5" x2="690" y2="299.5" stroke="#f3f4f6"/>
<line x1="71" y1="225.0" x2="76" y2="225.0" stroke="#9ca3af"/>
<text x="66" y="229.0" text-anchor="end" class="axis">0.52</text>
<line x1="76" y1="225.0" x2="690" y2="225.0" stroke="#f3f4f6"/>
<line x1="71" y1="150.5" x2="76" y2="150.5" stroke="#9ca3af"/>
<text x="66" y="154.5" text-anchor="end" class="axis">0.78</text>
<line x1="76" y1="150.5" x2="690" y2="150.5" stroke="#f3f4f6"/>
<line x1="71" y1="76.0" x2="76" y2="76.0" stroke="#9ca3af"/>
<text x="66" y="80.0" text-anchor="end" class="axis">1.04</text>
<line x1="76" y1="76.0" x2="690" y2="76.0" stroke="#f3f4f6"/>
<polyline points="76.0,259.4 137.4,316.7 198.8,316.7 260.2,259.4 444.4,316.7 690.0,316.7" fill="none" stroke="#b91c1c" stroke-width="2.4"/>
<circle cx="76.0" cy="259.4" r="4" fill="#b91c1c"/>
<circle cx="137.4" cy="316.7" r="4" fill="#b91c1c"/>
<circle cx="198.8" cy="316.7" r="4" fill="#b91c1c"/>
<circle cx="260.2" cy="259.4" r="4" fill="#b91c1c"/>
<circle cx="444.4" cy="316.7" r="4" fill="#b91c1c"/>
<circle cx="690.0" cy="316.7" r="4" fill="#b91c1c"/>
<rect x="718" y="77" width="12" height="12" fill="#b91c1c"/>
<text x="738" y="88" class="label">pull=0.0</text>
<polyline points="76.0,87.5 137.4,87.5 198.8,202.1 260.2,144.8 444.4,202.1 690.0,144.8" fill="none" stroke="#047857" stroke-width="2.4"/>
<circle cx="76.0" cy="87.5" r="4" fill="#047857"/>
<circle cx="137.4" cy="87.5" r="4" fill="#047857"/>
<circle cx="198.8" cy="202.1" r="4" fill="#047857"/>
<circle cx="260.2" cy="144.8" r="4" fill="#047857"/>
<circle cx="444.4" cy="202.1" r="4" fill="#047857"/>
<circle cx="690.0" cy="144.8" r="4" fill="#047857"/>
<rect x="718" y="99" width="12" height="12" fill="#047857"/>
<text x="738" y="110" class="label">pull=1.0</text>
<text x="383.0" y="412" text-anchor="middle" class="subtitle">Intervention budget / feedback rate</text>
<text x="18" y="225.0" transform="rotate(-90 18 225.0)" text-anchor="middle" class="subtitle">Viable rate</text>
</svg>